<?xml version="1.0" encoding="utf-8"?>
<!-- Generator: Adobe Illustrator 25.0.0, SVG Export Plug-In . SVG Version: 6.00 Build 0)  -->
<svg version="1.1" id="Layer_1" xmlns="http://www.w3.org/2000/svg" xmlns:xlink="http://www.w3.org/1999/xlink" x="0px" y="0px"
	 viewBox="0 0 1295.43 841.89" style="enable-background:new 0 0 1295.43 841.89;" xml:space="preserve">
<style type="text/css">
	.st0{display:none;fill:#066163;}
	.st1{fill:#06113C;}
	.st2{fill:#FF5F00;}
</style>
<path class="st0" d="M598.3,461.84H437.95c-6.6,0-12-5.4-12-12V289.48c0-6.6,5.4-12,12-12H598.3c6.6,0,12,5.4,12,12v160.36
	C610.3,456.44,604.9,461.84,598.3,461.84z"/>
<g>
	<g>
		<g>
			<path class="st1" d="M525.44,620v20.2c0,7.04-2.9,10.57-8.87,10.57c-6.21,0-8.48-3.95-8.48-10.52v-20.25
				c0-6.81,3.1-10.39,8.77-10.39C522.78,609.62,525.44,613.67,525.44,620z M512.44,619.81v20.8c0,4.5,1.64,6.3,4.33,6.3
				c2.84,0,4.32-1.74,4.32-6.49v-20.6c0-4.25-1.46-6.29-4.35-6.29C513.85,613.52,512.44,615.45,512.44,619.81z"/>
			<path class="st1" d="M532.88,650.24v-40.08h5.09c2.16,7.42,7.73,28.43,8.39,31.7h0.09c-0.23-5.39-0.3-11.03-0.3-17.56v-14.14
				h4.02v40.08h-4.92c-2.13-7.52-7.88-29.58-8.63-32.77h-0.06c0.27,4.83,0.37,11.23,0.37,18.46v14.31H532.88z"/>
			<path class="st1" d="M558.5,610.16h4.27v36.24h10.08l-0.47,3.84H558.5V610.16z"/>
			<path class="st1" d="M582.38,610.16v40.08h-4.27v-40.08H582.38z"/>
			<path class="st1" d="M590.71,650.24v-40.08h5.09c2.16,7.42,7.73,28.43,8.39,31.7h0.09c-0.23-5.39-0.3-11.03-0.3-17.56v-14.14H608
				v40.08h-4.92c-2.13-7.52-7.88-29.58-8.63-32.77h-0.06c0.27,4.83,0.37,11.23,0.37,18.46v14.31H590.71z"/>
			<path class="st1" d="M629.56,630.83h-8.99v15.49h10.21l-0.58,3.92h-13.89v-40.08h13.77v3.95h-9.5v12.8h8.99V630.83z"/>
			<path class="st1" d="M666.86,633.51c0-7.35,0.12-15.27,0.25-19.55h-0.06c-1,6.73-4.06,24.37-6.2,36.28h-4.17
				c-1.63-10.31-4.78-29.15-5.75-36.3h-0.12c0.12,4.65,0.33,13.74,0.33,20.61v15.7h-3.97v-40.08h6.32
				c2.2,11.85,4.83,26.54,5.37,31.64h0.06c0.63-5,3.69-20.5,5.88-31.64H671v40.08h-4.13V633.51z"/>
			<path class="st1" d="M683.22,637.45l-1.91,12.79h-4.32l6.58-40.08h6.08l6.86,40.08h-4.47l-2.06-12.79H683.22z M689.42,633.53
				c-1.4-8.83-2.41-15.64-2.79-19.43h-0.17c-0.15,3.1-1.58,12.11-2.66,19.43H689.42z"/>
			<path class="st1" d="M706.76,631.52v18.71h-4.27v-40.08h7c6.02,0,8.98,2.6,8.98,9.22v1.83c0,5.44-1.91,7.67-4.08,8.44
				c2.54,0.94,3.72,2.86,3.72,8.22c0,3.43-0.06,9.83,0.39,12.37h-4.16c-0.51-2.5-0.42-9.23-0.42-12.04c0-5.19-0.73-6.67-4.7-6.67
				H706.76z M706.76,627.9h2.62c3.81,0,4.8-2.2,4.8-6.49v-1.78c0-3.66-1-5.85-5.01-5.85h-2.41V627.9z"/>
			<path class="st1" d="M725.65,610.16h4.21v19.33h0.06c1.66-3.76,5.99-13.41,8.58-19.33h4.68l-7.66,15.9l8.34,24.17h-4.64
				l-6.56-19.71l-2.81,5.6v14.11h-4.21V610.16z"/>
			<path class="st1" d="M761.62,630.83h-8.99v15.49h10.21l-0.58,3.92h-13.89v-40.08h13.77v3.95h-9.5v12.8h8.99V630.83z"/>
			<path class="st1" d="M772.08,614.11h-6.49v-3.95h17.2v3.95h-6.45v36.13h-4.26V614.11z"/>
		</g>
	</g>
	<g>
		<path class="st2" d="M424.17,552.86v7.42c0,8.93,2.68,13.91,9.72,13.91c7.22,0,9.09-6.84,9.09-14.63
			c0-12.91-2.78-16.91-15.66-27.07c-12.92-10.2-19.82-16.72-19.82-34.5c0-15.83,4.79-31.79,26.46-31.77
			c22.16,0.02,25.58,15.82,25.58,28.85v6.41h-18.36v-5.92c0-8.36-1.41-13.42-7.56-13.42c-6.02,0-7.61,5.23-7.61,13.19
			c0,8.48,1.61,12.64,12.17,20.36c17.97,13.29,23.48,21,23.48,41.09c0,17.03-5.97,33.18-28.37,33.18
			c-22.21,0-27.63-14.15-27.63-29.97v-7.13H424.17z"/>
		<path class="st1" d="M529.25,499.99v56.07c0,23.01-9.76,33.89-30.11,33.89c-19.51,0-28.3-11.16-28.3-33.57v-56.52
			c0-23,11.58-33.49,29.47-33.49C518.53,466.37,529.25,476.89,529.25,499.99z M489.7,498.18v60.39c0,9.98,3.6,14.66,10.28,14.66
			c7.2,0,10.42-4.37,10.42-14.93v-60.27c0-9.53-2.93-14.8-10.44-14.8C493.29,483.24,489.7,488.02,489.7,498.18z"/>
		<path class="st1" d="M560.79,468.12v91.33c0,8.77,2.87,13.76,10.04,13.76c7.35,0,9.72-5.61,9.72-13.74v-91.35h18.54v90.97
			c0,18.95-8.56,30.85-28.6,30.85c-19.08,0-28.22-10.33-28.22-30.79v-91.04H560.79z"/>
		<path class="st1" d="M668.98,588.2h-14.43c-0.5-2.11-0.86-6.46-1.01-9.01c-3.33,7.99-10.3,10.77-18.05,10.77
			c-17.67,0-23.36-12.79-23.36-33.14v-56.39c0-19.61,7.64-34.05,28.5-34.05c25.22,0,27.88,18.54,27.88,31.43v3.9h-18.52v-4.8
			c0-6.33-0.92-13.65-9.38-13.65c-6.74,0-9.62,4.67-9.62,14.25v61.42c0,9.61,2.78,14.63,9.47,14.63c8.03,0,9.98-6.72,9.98-19.06
			v-17.53h-10.5v-15.92h29.04V588.2z"/>
		<path class="st1" d="M684.06,468.12h25.69c25.47,0,31.67,13.2,31.67,35.48v46.04c0,18.36-3.15,38.55-31.7,38.55h-25.65V468.12z
			 M702.58,572.43h5.94c12.17,0,14.04-7.84,14.04-20.27v-50.02c0-11.04-1.95-18.1-14.15-18.1h-5.82V572.43z"/>
		<path class="st1" d="M771.4,556.08l-4.2,32.12h-18.83l19.34-120.07h26.16l20.08,120.07H794.6l-4.72-32.12H771.4z M787.69,539.05
			c-2.75-20.39-5.37-39.75-6.74-53.32h-0.68c-0.52,9.89-4.13,35.6-6.52,53.32H787.69z"/>
		<path class="st1" d="M823.54,588.2V468.12h21.45c4.79,16.94,19.12,76.21,20.39,82.57h0.2c-0.86-14.77-0.9-31.66-0.9-51.39v-31.18
			h17.09V588.2h-20.63c-3.79-14.34-19.77-80.2-20.97-85.24h-0.18c0.88,14.54,0.81,30.81,0.81,52.41v32.84H823.54z"/>
	</g>
	<g>
		<path class="st2" d="M730.64,243.87l2.5-14.94c-31.71,0-70.69,0.05-89.54,0.05h-8.77c1.32,7.77,2.49,14.78,3.69,21.77
			c1.79,10.37,3.58,20.77,5.38,31.16H760l-4.07,23.81c-0.8,4.65-1.59,9.29-2.39,13.89h-0.07l-4.41,26.03v0.02l-3.92,23.16
			c-5.37,14.49-15.61,22.47-29.5,23.82c-0.85,0.1-1.72,0.15-2.6,0.18c-17.48,0.63-35.04,0.57-52.53-0.02
			c-17.09-0.57-30.28-12.67-33.53-30.6c-0.96-5.27-1.9-10.55-2.83-15.82h24.02c0.46,2.63,0.93,5.25,1.4,7.89
			c1.82,10.18,5.32,13.25,14.7,13.27c15.17,0.08,30.36,0.08,45.53,0c0.72,0,1.4-0.02,2.05-0.07c5.12-0.34,9.35-4.1,10.31-9.14
			l2.91-15.3l1.5-7.82l2.96-15.59h-0.02c0.18-1.04,0.36-2.1,0.54-3.17c0.55-3.15,1.14-6.47,1.76-10H625.45v-0.13h-1.28
			c-5.89-33.06-11.51-66.17-17.24-99.26c-0.13-0.68,0.07-1.43,0.15-3.32h8.11c22.21,0,59.94-0.05,94.63-0.05
			c11.58,0,22.8,0,33.01,0.02l0.02-0.03h30.49l-6.85,40.17l-12.02,0.02L730.64,243.87z"/>
		<path class="st1" d="M674.58,415.07c0.17,6.72-5.01,12.02-11.77,12.01c-6.4,0-11.57-5.03-11.73-11.4
			c-0.16-6.47,5.43-12.23,11.82-12.18C669.17,403.54,674.42,408.75,674.58,415.07z"/>
		<path class="st1" d="M709.79,427.07c-6.51-0.01-11.46-4.87-11.61-11.39c-0.15-6.65,5.23-12.25,11.7-12.17
			c6.17,0.07,11.63,5.42,11.8,11.57C721.87,421.65,716.49,427.08,709.79,427.07z"/>
		<rect x="537.65" y="175.93" class="st1" width="45" height="0.02"/>
		<path class="st1" d="M620.63,391.77h-9.68c-9.24,0-17.14-6.62-18.73-15.71l-24.88-141.44l-3.02-17.12
			c0.98-0.39,2.02-0.59,3.12-0.59h22.41l3.09,17.56L620.63,391.77z"/>
		<g>
			<g>
				<path class="st1" d="M585.76,193.66h-54.8c-2.46,0-4.67-0.99-6.26-2.6c-1.61-1.59-2.6-3.81-2.6-6.24c0-4.89,3.97-8.86,8.86-8.86
					h51.68L585.76,193.66z"/>
			</g>
		</g>
		<g>
			<g>
				<path class="st1" d="M589.36,214.13h-42.39c-2.46,0-4.67-0.99-6.26-2.59c-1.61-1.59-2.6-3.81-2.6-6.26
					c0-2.86,1.35-5.4,3.46-7.01c1.5-1.15,3.37-1.84,5.4-1.84h39.29l0.83,4.75L589.36,214.13z"/>
			</g>
		</g>
	</g>
</g>
</svg>
